# xmcd
#
# Track frame offsets: 
#        150
#        13031
#        21386
#        31133
#        41643
#        51634
#        63773
#        79014
#        91991
#        103878
#        117623
#        128913
#        140646
#        153393
#        165146
#        177773
#        189276
#        201759
#        212348
#        224233
#
# Disc length: 3215 seconds
#
# Revision: 0
# Processed by: cddbd v1.5.2PL0 Copyright (c) Steve Scherf et al.
# Submitted via: ExactAudioCopy v1.0b3
#
DISCID=1b0c8d14
DTITLE=Willie Nelson - Country Songbook
DYEAR=1999
DGENRE=Country
TTITLE0=Any Old Arms Won't Do
TTITLE1=You Wouldn't Cross The Street To Say Goodbye
TTITLE2=Let's Pretend
TTITLE3=Blame It On The Times
TTITLE4=Ashamed
TTITLE5=Nightlife
TTITLE6=Face Of A Fighter
TTITLE7=If I Don't Understand
TTITLE8=The Last Letter
TTITLE9=If You Can't Undo The Wrongs, Undo The Right
TTITLE10=I'm Going To Lose A Lot Of Teardrops
TTITLE11=December Day
TTITLE12=She's Not For You
TTITLE13=I'll Stay Around
TTITLE14=Country Willie
TTITLE15=Suffering In Silence
TTITLE16=Paces
TTITLE17=Touch Me
TTITLE18=Some Other Time
TTITLE19=Let My Mind Wander
EXTD=
EXTT0=
EXTT1=
EXTT2=
EXTT3=
EXTT4=
EXTT5=
EXTT6=
EXTT7=
EXTT8=
EXTT9=
EXTT10=
EXTT11=
EXTT12=
EXTT13=
EXTT14=
EXTT15=
EXTT16=
EXTT17=
EXTT18=
EXTT19=
PLAYORDER=
